#N canvas -8 -8 1366 685 12;
#X obj 54 50 expr atan(1)*4;
#X obj 54 21 loadbang;
#X obj 527 284 *~;
#X obj 54 79 s \$0-pi;
#X obj 604 226 r \$0-pi;
#X obj 682 255 * 2;
#X obj 376 428 *~ 0.75;
#X obj 12 204 inlet;
#X obj 376 544 outlet~;
#X obj 376 486 *~;
#X obj 527 255 phasor~;
#X obj 760 9 inlet;
#X obj 916 178 route f g, f 14;
#X obj 916 255 osc~;
#X obj 916 284 *~, f 7;
#X obj 963 226 line~;
#X obj 916 226 line~;
#X obj 89 291 swap;
#X obj 12 330 f;
#X obj 89 417 s \$0-vel;
#X obj 89 388 / 127;
#X obj 12 262 route bend;
#X obj 12 291 t b f;
#X obj 12 359 +;
#X obj 12 388 mtof;
#X obj 12 417 s \$0-note;
#X obj 750 438 r \$0-vel;
#X obj 527 226 r \$0-note;
#X obj 376 399 expr~ sin($v1) * ($v2);
#X obj 208 399 expr~ cos($v1) * ($v2);
#X obj 760 265 line~;
#X msg 916 202 \$1 1;
#X msg 963 202 \$1 1;
#X obj 760 207 pack;
#X msg 760 236 \$1 \$2;
#X obj 208 428 *~ 0.75;
#X obj 208 544 outlet~;
#X obj 208 486 *~;
#X obj 837 265 line~;
#X obj 837 207 pack;
#X msg 837 236 \$1 \$2;
#X obj 527 313 expr~ cos($f2/$v4) / cos(($f3/$v4) * (((($v1+$v6)*$v4)/$f3)-floor(((($v1+$v6)*$v4)/$f3))/1)
- $f2/$v4 + $v5);
#X obj 376 515 lop~ 22000;
#X obj 208 515 lop~ 22000;
#X obj 760 149 route n t lerp pm lop, f 37;
#X obj 527 370 lop~;
#X obj 750 525 switch~;
#X obj 860 67 t f f;
#X obj 12 233 spigot;
#N canvas -8 -8 1366 685 switch 0;
#X obj 82 12 inlet~;
#X obj 82 89 snapshot~;
#X obj 159 16 loadbang;
#X obj 159 40 tgl 15 0 empty empty empty 17 7 0 10 #fcfcfc #000000
#000000 0 1;
#X obj 12 12 r \$0-vel;
#X msg 12 162 1;
#X msg 82 162 0;
#X obj 82 133 sel 0;
#X obj 12 244 outlet;
#X obj 159 60 metro 500;
#X obj 12 215 change;
#X obj 12 89 sel 0;
#X obj 82 186 spigot, f 9;
#X msg 142 167 1;
#X msg 167 167 0;
#X obj 142 143 delay 10;
#X obj 142 118 bng 15 250 50 0 empty empty empty 17 7 0 10 #fcfcfc
#000000 #000000;
#X text 270 69 este subparche recibe la envolvente \, si es igual a
0 entonces el dsp de esta voz se apaga hasta recibir la próxima nota
midi;
#X connect 0 0 1 0;
#X connect 1 0 7 0;
#X connect 2 0 3 0;
#X connect 3 0 9 0;
#X connect 4 0 11 0;
#X connect 5 0 10 0;
#X connect 6 0 12 0;
#X connect 7 0 6 0;
#X connect 9 0 1 0;
#X connect 10 0 8 0;
#X connect 11 1 16 0;
#X connect 11 1 5 0;
#X connect 12 0 10 0;
#X connect 13 0 12 1;
#X connect 14 0 12 1;
#X connect 15 0 13 0;
#X connect 16 0 14 0;
#X connect 16 0 15 0;
#X restore 750 496 pd switch;
#X obj 208 457 clip~ -0.99 0.99;
#X obj 376 457 clip~ -0.99 0.99;
#X text 927 323 el objeto expr~ se corresponde con la fórmula descripta
en el paper \, donde: \; -$v1 = fi \; -$f2 = pi \; -$f3 = 2*pi \; -$v4
= n \; -$v5 = T \; -$v6 = modulación de fase de fi \;;
#X obj 860 96 sel 0;
#X msg 860 120 0;
#X obj 760 38 route poly adsr switch;
#X obj 750 467 dym/adsr~;
#X connect 0 0 3 0;
#X connect 1 0 0 0;
#X connect 2 0 28 0;
#X connect 2 0 29 0;
#X connect 2 0 41 0;
#X connect 4 0 5 0;
#X connect 4 0 41 1;
#X connect 5 0 2 1;
#X connect 5 0 41 2;
#X connect 6 0 51 0;
#X connect 7 0 48 0;
#X connect 9 0 42 0;
#X connect 10 0 2 0;
#X connect 11 0 55 0;
#X connect 12 0 31 0;
#X connect 12 1 32 0;
#X connect 13 0 14 0;
#X connect 14 0 41 5;
#X connect 15 0 14 1;
#X connect 16 0 13 0;
#X connect 17 0 20 0;
#X connect 17 1 18 0;
#X connect 18 0 23 0;
#X connect 20 0 19 0;
#X connect 21 0 22 0;
#X connect 21 1 17 0;
#X connect 22 0 18 0;
#X connect 22 1 23 1;
#X connect 23 0 24 0;
#X connect 24 0 25 0;
#X connect 26 0 56 0;
#X connect 27 0 10 0;
#X connect 28 0 6 0;
#X connect 29 0 35 0;
#X connect 30 0 41 3;
#X connect 31 0 16 0;
#X connect 32 0 15 0;
#X connect 33 0 34 0;
#X connect 34 0 30 0;
#X connect 35 0 50 0;
#X connect 37 0 43 0;
#X connect 38 0 41 4;
#X connect 39 0 40 0;
#X connect 40 0 38 0;
#X connect 41 0 45 0;
#X connect 42 0 8 0;
#X connect 43 0 36 0;
#X connect 44 0 33 0;
#X connect 44 1 39 0;
#X connect 44 2 39 1;
#X connect 44 2 33 1;
#X connect 44 3 12 0;
#X connect 44 4 45 1;
#X connect 45 0 28 1;
#X connect 45 0 29 1;
#X connect 47 0 53 0;
#X connect 47 1 48 1;
#X connect 48 0 21 0;
#X connect 49 0 46 0;
#X connect 50 0 37 0;
#X connect 51 0 9 0;
#X connect 53 0 54 0;
#X connect 54 0 19 0;
#X connect 55 0 44 0;
#X connect 55 1 56 1;
#X connect 55 2 47 0;
#X connect 56 0 9 1;
#X connect 56 0 37 1;
#X connect 56 0 49 0;
#X coords 0 685 1 684 100 100 0;
